<svg width="276" height="225" viewBox="0 0 276 225" fill="none" xmlns="http://www.w3.org/2000/svg">
<path d="M203.15 61.9226C203.987 64.4528 203.444 67.5103 201.341 71.0212C199.242 74.527 195.684 78.3078 190.865 82.1203C181.238 89.7373 166.845 97.2732 149.964 102.862C133.084 108.45 117.037 110.991 104.767 110.624C98.6251 110.44 93.5138 109.529 89.737 107.969C85.9547 106.406 83.6943 104.277 82.8566 101.747C82.0189 99.2162 82.5622 96.1588 84.6649 92.6478C86.7645 89.1421 90.3227 85.3613 95.1413 81.5488C104.768 73.9318 119.161 66.3958 136.042 60.8074C152.922 55.219 168.969 52.6776 181.239 53.0453C187.381 53.2293 192.492 54.14 196.269 55.7003C200.052 57.2629 202.312 59.3923 203.15 61.9226Z" stroke="#282828" stroke-width="3"/>
<path d="M203.15 162.253C203.987 164.784 203.444 167.841 201.341 171.352C199.242 174.858 195.684 178.639 190.865 182.451C181.238 190.068 166.845 197.604 149.964 203.193C133.084 208.781 117.037 211.322 104.767 210.955C98.6251 210.771 93.5138 209.86 89.737 208.3C85.9547 206.737 83.6943 204.608 82.8566 202.077C82.0189 199.547 82.5622 196.49 84.6649 192.979C86.7645 189.473 90.3227 185.692 95.1413 181.88C104.768 174.263 119.161 166.727 136.042 161.138C152.922 155.55 168.969 153.009 181.239 153.376C187.381 153.56 192.492 154.471 196.269 156.031C200.052 157.594 202.312 159.723 203.15 162.253Z" stroke="#282828" stroke-width="3"/>
<line x1="203.5" y1="63" x2="203.5" y2="163" stroke="#282828" stroke-width="3"/>
<line x1="82.5" y1="101" x2="82.5" y2="201" stroke="#282828" stroke-width="3"/>
<path d="M82 103V103C105.121 120.764 110.633 153.352 94.6401 177.732L82 197" stroke="#282828" stroke-width="3"/>
<path d="M203 71.5L196.76 77.866C173.861 101.227 176.798 139.415 203 159V159" stroke="#282828" stroke-width="3"/>
<path d="M270.007 61.9957C260.536 57.8882 249.643 58.4177 240.609 63.4389C246.464 54.2778 245.876 42.31 238.991 33.7468C248.983 37.5552 260.222 36.5827 269.415 31.1027C264.433 40.8574 264.681 52.4817 270.007 61.9957Z" stroke="#282828" stroke-width="3"/>
<path d="M99.0072 37.9957C89.5359 33.8882 78.6427 34.4177 69.6094 39.4389C75.4639 30.2778 74.8761 18.31 67.9908 9.74679C77.9832 13.5552 89.2222 12.5827 98.4155 7.10265C93.4335 16.8574 93.6805 28.4817 99.0072 37.9957Z" stroke="#282828" stroke-width="3"/>
<path d="M37.0072 196.996C27.5359 192.888 16.6427 193.418 7.60941 198.439C13.4639 189.278 12.8761 177.31 5.99085 168.747C15.9832 172.555 27.2222 171.583 36.4155 166.103C31.4335 175.857 31.6805 187.482 37.0072 196.996Z" fill="#9223EA" stroke="#282828" stroke-width="3"/>
</svg>
